<?xml version="1.0" standalone="no"?>
<!DOCTYPE svg PUBLIC "-//W3C//DTD SVG 20010904//EN"
 "http://www.w3.org/TR/2001/REC-SVG-20010904/DTD/svg10.dtd">
<svg version="1.0" xmlns="http://www.w3.org/2000/svg"
 width="1024.000000pt" height="1024.000000pt" viewBox="0 0 1024.000000 1024.000000"
 preserveAspectRatio="xMidYMid meet">

<g transform="translate(0.000000,1024.000000) scale(0.100000,-0.100000)"
fill="#000000" stroke="none">
<path d="M4890 7509 c-233 -27 -476 -99 -689 -205 -183 -91 -246 -132 -416
-270 -101 -82 -239 -219 -309 -306 l-38 -48 -99 0 -99 0 0 -105 0 -105 40 -20
40 -20 0 -230 0 -229 47 -7 c59 -9 199 9 287 36 l66 21 0 144 0 144 73 43
c143 83 283 118 480 118 227 0 431 -48 580 -137 l77 -47 0 -252 0 -252 53 -40
c29 -22 70 -58 91 -80 l38 -40 32 36 c17 19 59 57 94 82 l63 47 -1 246 -1 246
33 24 c136 103 375 167 618 167 199 0 332 -33 484 -120 l76 -44 0 -142 0 -142
48 -15 c110 -35 236 -52 309 -42 l48 6 -2 224 -2 223 44 27 45 26 0 104 0 105
-97 -1 c-95 -1 -97 0 -118 28 -82 114 -266 292 -418 405 -239 177 -580 324
-864 372 -209 36 -438 45 -613 25z m180 -514 l0 -324 -220 1 -220 1 0 287 0
288 79 21 c96 26 236 49 309 50 l52 1 0 -325z m340 300 c41 -9 101 -23 133
-32 l57 -16 -2 -286 -3 -286 -217 0 -217 0 -3 324 -3 324 90 -6 c50 -4 124
-13 165 -22z m346 -103 c84 -34 174 -86 277 -160 l77 -55 0 -151 0 -151 -133
-3 c-72 -2 -169 -1 -214 3 l-83 7 0 269 c0 148 2 269 4 269 2 0 35 -13 72 -28z
m-1216 -250 l0 -268 -172 -2 c-95 -1 -190 1 -210 4 l-38 6 0 143 0 143 39 31
c101 80 329 211 367 211 12 0 14 -49 14 -268z m1690 -84 c36 -40 133 -178 126
-178 -3 -1 -41 -1 -83 -2 l-78 0 -3 106 c-1 58 0 106 3 106 3 0 19 -15 35 -32z
m-2200 -80 l0 -103 -75 0 c-41 0 -75 3 -75 6 0 12 137 199 147 199 2 0 3 -46
3 -102z"/>
<path d="M3844 5949 c-34 -4 -124 -20 -200 -35 -171 -33 -340 -37 -419 -9
l-49 17 -19 -23 c-10 -13 -38 -44 -61 -69 -79 -86 -176 -197 -176 -203 0 -3
62 -6 138 -6 182 -2 541 -19 672 -32 595 -58 1113 -204 1321 -372 l59 -47 78
54 c341 238 967 370 1853 393 148 3 269 9 269 13 0 9 -250 285 -258 285 -4 -1
-34 -7 -67 -15 -92 -21 -240 -17 -400 13 -208 39 -284 47 -420 47 -394 0 -810
-177 -1015 -432 l-38 -47 -18 27 c-103 158 -382 333 -643 403 -167 45 -430 62
-607 38z"/>
<path d="M2855 5513 c-11 -2 -41 -34 -68 -71 l-47 -67 403 -11 c826 -24 1207
-71 1645 -202 90 -27 94 -30 111 -68 10 -21 27 -46 37 -55 43 -37 165 -55 257
-39 92 17 121 34 149 88 l24 47 125 38 c252 76 582 131 979 162 248 19 759 38
913 33 64 -2 117 -1 117 2 0 3 -20 31 -45 64 -24 32 -46 63 -48 70 -5 15 -554
13 -807 -3 -407 -26 -727 -82 -1010 -178 -123 -41 -285 -120 -342 -166 -39
-31 -44 -32 -132 -32 l-91 0 -55 41 c-30 23 -80 54 -110 69 -227 114 -686 223
-1075 254 -293 25 -859 39 -930 24z"/>
<path d="M7985 4743 c-71 -13 -130 -25 -132 -26 -10 -11 14 -47 35 -52 15 -4
30 -12 34 -18 4 -7 8 -203 8 -437 0 -451 0 -450 -47 -450 -19 0 -23 -5 -23
-30 l0 -30 175 0 175 0 0 30 c0 26 -4 30 -27 30 -61 0 -58 -25 -63 513 l-5
493 -130 -23z"/>
<path d="M3665 4755 c-5 -2 -54 -11 -108 -20 -97 -17 -98 -17 -95 -44 2 -19
10 -27 28 -29 47 -7 50 -17 50 -144 0 -107 -2 -119 -16 -114 -139 53 -290 21
-387 -83 -56 -60 -83 -111 -103 -198 -37 -159 21 -325 140 -401 33 -21 57 -26
122 -30 72 -4 89 -1 135 20 30 14 66 38 82 53 l27 28 0 -52 c0 -58 -8 -55 111
-41 155 19 149 17 149 50 0 23 -5 30 -20 30 -11 0 -29 9 -40 20 -20 20 -20 30
-18 490 l3 470 -25 -1 c-14 0 -29 -2 -35 -4z m-205 -420 c14 -7 36 -25 50 -40
25 -26 25 -30 28 -212 2 -123 -1 -195 -8 -213 -29 -70 -113 -108 -180 -80 -43
18 -95 82 -111 138 -21 70 -18 245 4 308 37 107 125 147 217 99z"/>
<path d="M1090 4690 c0 -26 4 -30 26 -30 14 0 34 -5 45 -10 18 -10 19 -26 19
-438 0 -320 -3 -431 -12 -440 -7 -7 -27 -12 -45 -12 -30 0 -33 -3 -33 -31 l0
-31 288 4 c268 4 291 5 343 26 145 58 218 192 179 332 -21 76 -109 152 -201
171 l-51 11 40 18 c52 23 116 82 136 124 10 21 16 60 16 103 0 83 -25 130 -90
174 -79 53 -118 59 -402 59 l-258 0 0 -30z m472 -56 c113 -65 99 -289 -21
-351 -30 -16 -61 -23 -98 -23 l-53 0 0 201 0 202 69 -5 c42 -3 83 -13 103 -24z
m26 -458 c100 -52 143 -232 79 -328 -41 -60 -80 -78 -168 -78 -42 0 -84 3 -93
6 -14 5 -16 34 -16 216 l0 211 83 -5 c48 -3 97 -13 115 -22z"/>
<path d="M5352 4693 c3 -23 9 -29 44 -36 31 -6 43 -14 48 -30 3 -12 6 -205 6
-429 0 -447 1 -438 -60 -438 -31 0 -51 -33 -32 -52 6 -6 116 -8 293 -6 265 4
288 5 340 26 69 27 133 81 162 136 29 55 31 187 3 232 -44 69 -134 134 -185
134 -48 0 -52 12 -11 34 111 59 149 118 150 227 0 59 -4 72 -32 115 -24 35
-49 56 -93 79 l-60 30 -288 3 -288 3 3 -28z m479 -59 c44 -26 69 -71 76 -136
7 -69 -10 -130 -49 -174 -39 -44 -86 -64 -154 -64 l-54 0 0 201 0 202 74 -5
c48 -3 85 -12 107 -24z m27 -458 c100 -52 143 -232 79 -327 -41 -61 -69 -74
-168 -78 -61 -2 -94 1 -104 9 -12 10 -15 48 -15 210 0 108 3 200 8 204 12 14
166 0 200 -18z"/>
<path d="M2719 4687 c-24 -19 -39 -52 -39 -90 0 -27 7 -41 31 -61 96 -81 224
37 143 133 -22 27 -32 31 -72 31 -26 0 -54 -6 -63 -13z"/>
<path d="M2118 4397 c-115 -31 -118 -32 -118 -59 0 -20 5 -28 18 -28 10 0 28
-7 40 -16 22 -15 22 -18 22 -264 0 -236 -1 -250 -19 -260 -11 -5 -29 -10 -40
-10 -17 0 -21 -6 -21 -30 l0 -30 190 0 190 0 0 30 c0 29 -2 30 -44 30 -25 0
-48 6 -55 14 -9 10 -11 72 -9 218 3 223 10 252 62 276 26 13 31 12 72 -18 54
-38 81 -35 131 15 43 43 45 85 4 126 -24 24 -38 29 -76 29 -75 0 -136 -40
-184 -120 l-21 -35 0 83 c0 59 -3 82 -12 81 -7 0 -66 -15 -130 -32z"/>
<path d="M2732 4398 c-121 -29 -123 -31 -120 -56 2 -18 10 -28 23 -30 11 -2
28 -11 38 -20 15 -14 17 -39 17 -254 0 -146 -4 -247 -10 -259 -8 -13 -21 -19
-45 -19 -32 0 -35 -2 -35 -30 l0 -30 185 0 185 0 0 30 c0 25 -4 30 -23 30 -12
0 -33 7 -45 16 -22 15 -22 16 -22 335 0 249 -3 319 -12 318 -7 0 -68 -14 -136
-31z"/>
<path d="M4490 4414 c-34 -9 -80 -12 -120 -9 -264 20 -305 16 -388 -45 -131
-95 -119 -299 22 -375 20 -11 36 -22 36 -25 0 -3 -16 -12 -35 -19 -51 -18
-105 -73 -105 -105 0 -46 27 -94 70 -125 l41 -30 -39 -11 c-53 -14 -99 -58
-107 -103 -18 -95 96 -184 252 -194 149 -10 293 32 381 112 49 44 66 89 60
164 -10 134 -106 180 -375 181 -121 0 -143 9 -143 54 0 44 26 54 150 58 100 3
122 7 166 30 97 50 142 131 130 232 -3 26 -14 64 -26 83 -11 19 -20 37 -20 39
0 3 27 4 60 2 l60 -3 0 53 c0 28 -3 52 -7 51 -5 -1 -33 -8 -63 -15z m-227 -74
c57 -45 60 -251 5 -307 -33 -32 -98 -42 -133 -19 -42 28 -57 71 -57 166 0 89
15 140 51 167 26 20 105 16 134 -7z m117 -688 c30 -14 35 -23 38 -55 4 -50
-34 -102 -97 -130 -61 -28 -191 -30 -238 -4 -61 33 -82 121 -45 182 l19 30
144 -3 c110 -2 152 -7 179 -20z"/>
<path d="M4836 4410 c-183 -72 -269 -337 -175 -542 54 -115 135 -168 270 -176
56 -3 91 0 128 13 96 32 210 145 181 180 -18 22 -27 19 -77 -24 -75 -67 -180
-78 -254 -28 -60 40 -94 108 -101 202 l-3 40 222 3 223 2 6 26 c19 76 -30 212
-94 262 -79 63 -225 81 -326 42z m186 -70 c32 -24 56 -83 64 -155 l7 -55 -147
0 -146 0 6 43 c10 69 49 144 86 167 42 26 98 26 130 0z"/>
<path d="M6529 4416 c-76 -30 -119 -57 -163 -108 -67 -76 -89 -141 -90 -258
-1 -84 2 -102 27 -155 51 -109 140 -177 263 -202 132 -27 247 8 341 103 75 77
98 141 98 274 0 96 -3 110 -30 163 -35 71 -98 130 -173 165 -69 31 -213 41
-273 18z m194 -76 c117 -102 128 -442 17 -552 -33 -33 -44 -38 -84 -38 -132 0
-193 113 -184 340 5 133 28 200 85 250 28 25 43 30 83 30 40 0 55 -5 83 -30z"/>
<path d="M7339 4415 c-105 -34 -188 -114 -230 -222 -34 -89 -32 -218 4 -298
35 -75 86 -129 158 -165 156 -79 345 -49 454 72 62 68 89 138 93 248 3 79 0
104 -18 152 -30 81 -102 157 -182 193 -77 35 -204 44 -279 20z m207 -89 c60
-63 79 -129 78 -281 -1 -205 -51 -294 -165 -295 -122 -1 -189 133 -176 351 7
118 34 196 83 238 29 26 43 31 86 31 48 0 54 -3 94 -44z"/>
<path d="M8854 4416 c-102 -32 -154 -104 -154 -213 0 -107 43 -158 171 -206
142 -54 179 -83 179 -145 0 -46 -16 -71 -55 -88 -47 -19 -89 -18 -134 6 -38
19 -97 88 -122 143 -8 18 -20 27 -36 27 -21 0 -24 -4 -19 -27 3 -16 8 -63 12
-107 6 -76 8 -78 38 -91 91 -38 265 -36 343 3 87 45 133 143 115 244 -16 85
-62 130 -176 173 -106 40 -144 63 -162 96 -43 85 40 162 140 129 40 -13 77
-52 102 -109 13 -31 22 -40 38 -37 19 3 21 9 17 77 -5 111 -7 114 -90 127 -88
15 -155 14 -207 -2z"/>
<path d="M8303 4386 c0 -20 6 -25 38 -30 21 -3 41 -11 45 -17 4 -6 -45 -63
-116 -134 -67 -67 -121 -127 -119 -133 2 -5 58 -91 124 -191 l120 -181 133 0
132 0 0 30 c0 27 -3 30 -30 30 -41 0 -66 26 -216 224 l-128 170 84 78 c85 79
164 128 207 128 18 0 23 6 23 25 l0 25 -149 0 -148 0 0 -24z"/>
<path d="M4783 3139 c-124 -24 -203 -131 -190 -257 22 -209 285 -286 427 -125
82 94 72 249 -22 328 -59 50 -137 70 -215 54z m132 -98 c39 -22 65 -75 65
-134 0 -88 -49 -147 -128 -155 -142 -13 -226 148 -134 256 49 59 127 72 197
33z"/>
<path d="M3545 3127 c-141 -55 -193 -225 -110 -357 68 -107 251 -132 365 -49
l40 29 0 90 0 90 -97 0 -98 0 0 -35 0 -35 53 0 52 0 0 -35 c0 -51 -44 -77
-123 -72 -48 3 -62 8 -91 36 -38 37 -60 97 -50 138 12 49 46 101 79 119 43 23
134 16 174 -14 l29 -21 27 30 c25 29 26 31 8 45 -62 51 -184 70 -258 41z"/>
<path d="M4080 2905 l0 -225 165 0 165 0 0 40 0 40 -120 0 -120 0 0 185 0 185
-45 0 -45 0 0 -225z"/>
<path d="M5310 2905 l0 -225 142 0 c133 0 144 1 184 25 69 41 84 126 31 179
-13 13 -30 25 -38 28 -10 4 -7 11 13 27 35 28 45 78 24 123 -28 59 -56 68
-215 68 l-141 0 0 -225z m258 139 c12 -8 22 -26 22 -39 0 -39 -35 -55 -117
-55 l-73 0 0 55 0 55 73 0 c49 0 80 -5 95 -16z m23 -189 c23 -22 25 -52 2 -77
-13 -15 -32 -18 -105 -18 l-88 0 0 61 0 62 86 -6 c62 -3 90 -10 105 -22z"/>
<path d="M6053 3103 c-6 -16 -47 -115 -92 -222 -44 -106 -81 -195 -81 -198 0
-2 21 -3 46 -1 47 3 47 3 67 56 l20 53 101 -3 100 -3 21 -52 20 -53 47 0 c27
0 48 1 48 3 0 1 -16 41 -35 87 -20 47 -62 147 -93 222 l-57 138 -50 0 c-46 0
-52 -3 -62 -27z m97 -153 c16 -40 30 -77 30 -81 0 -5 -31 -9 -70 -9 -38 0 -70
2 -70 4 0 2 11 28 23 57 13 30 29 67 36 83 6 16 14 27 16 24 3 -2 18 -37 35
-78z"/>
<path d="M6565 2905 l0 -225 163 0 162 0 0 40 0 40 -120 0 -120 0 0 185 0 185
-42 0 -43 0 0 -225z"/>
</g>
</svg>
